#!OML:ASF I:\golf\golf\golf 2\Subject 1\2002-09-07\Subject1.ASF
:FULLY-SPECIFIED
:DEGREES
201
root -6.82916 17.742 0.602692 -16.9517 77.0488 -33.0158
lowerback 3.61585 1.91383 -4.86107
upperback 4.81782 2.52725 3.29156
thorax 2.61008 1.10409 6.11923
lowerneck -13.8345 2.02491 2.19
upperneck 39.3219 6.59617 -5.64822
head 16.8777 2.76448 -1.5799
rclavicle 2.97183e-014 -6.16232e-015
rhumerus -12.7729 0.823963 -99.9734
rradius 42.5179
rwrist -60.7071
rhand -33.9805 -7.47705
rfingers 7.12502
rthumb -7.16074 -37.3359
lclavicle 2.97183e-014 -6.16232e-015
lhumerus 4.44197 -76.2108 94.1782
lradius 26.6462
lwrist 29.1547
lhand 5.29626 58.8361
lfingers 7.12502
lthumb -149.347 -93.6968
rfemur -31.746 3.58104 15.1912
rtibia 28.1968
rfoot -8.46183 -3.3625
rtoes -7.11195
lfemur -24.4624 10.5603 -2.30148
ltibia 29.8929
lfoot -10.5978 9.32068
ltoes -24.5511
202
root -6.82824 17.7426 0.627404 -15.8346 76.3772 -31.8394
lowerback 3.48072 1.68172 -5.18293
upperback 4.90145 2.21923 3.22845
thorax 2.81095 0.930945 6.25158
lowerneck -13.7533 2.45313 2.22834
upperneck 39.0775 7.3072 -5.94935
head 16.7955 3.01256 -1.59186
rclavicle -3.05134e-014 -1.78906e-014
rhumerus -13.0028 1.06578 -99.6982
rradius 43.4684
rwrist -61.5048
rhand -34.7711 -7.34927
rfingers 7.12502
rthumb -7.92385 -37.1808
lclavicle -3.05134e-014 -1.78906e-014
lhumerus 6.05043 -76.1511 92.8854
lradius 26.4622
lwrist 28.1923
lhand 6.06548 59.4565
lfingers 7.12502
lthumb -148.614 -93.2163
rfemur -31.7934 3.88221 15.3412
rtibia 28.1529
rfoot -8.51531 -2.89292
rtoes -5.96892
lfemur -24.1016 10.9341 -2.1799
ltibia 29.9164
lfoot -10.441 9.81674
ltoes -26.7359
203
root -6.82627 17.7384 0.650128 -14.7943 75.6756 -30.8094
lowerback 3.29267 1.32374 -5.54781
upperback 4.96504 1.74475 3.25406
thorax 3.04647 0.669653 6.5049
lowerneck -13.6174 3.00699 2.00733
upperneck 38.7484 8.27258 -6.24321
head 16.6652 3.33009 -1.50722
rclavicle 5.38706e-014 -2.22639e-014
rhumerus -13.2314 1.62881 -99.4494
rradius 44.3949
rwrist -62.1339
rhand -35.5936 -7.24022
rfingers 7.12502
rthumb -8.71766 -37.0402
lclavicle 5.38706e-014 -2.22639e-014
lhumerus 7.8836 -75.9501 91.3395
lradius 26.379
lwrist 27.5077
lhand 3.85425 57.9665
lfingers 7.12502
lthumb -150.723 -94.3177
rfemur -31.9265 4.22749 15.4916
rtibia 28.1382
rfoot -8.49225 -2.41773
rtoes -5.00813
lfemur -23.7643 11.2699 -2.03014
ltibia 29.9221
lfoot -10.4087 10.2826
ltoes -27.2101
204
root -6.82355 17.7367 0.669799 -14.0956 75.0789 -30.1515
lowerback 3.11053 1.03506 -5.71454
upperback 5.00943 1.3664 3.18224
thorax 3.25366 0.465561 6.53533
lowerneck -13.5293 3.47543 1.93657
upperneck 38.4657 9.01067 -6.41124
head 16.5553 3.59447 -1.43501
rclavicle 1.03368e-014 -1.78906e-014
rhumerus -13.3791 1.56509 -99.2502
rradius 45.4002
rwrist -62.5577
rhand -36.4167 -7.16668
rfingers 7.12502
rthumb -9.51184 -36.932
lclavicle 1.03368e-014 -1.78906e-014
lhumerus 10.0351 -76.2662 89.463
lradius 26.3611
lwrist 26.7718
lhand 4.71744 57.0119
lfingers 7.12502
lthumb -149.9 -95.419
rfemur -32.0734 4.4393 15.7024
rtibia 28.1412
rfoot -8.45717 -1.98905
rtoes -5.40229
lfemur -23.4797 11.442 -1.83223
ltibia 29.9051
lfoot -10.5288 10.6394
ltoes -26.0005
205
root -6.82182 17.7378 0.697648 -13.4207 74.2765 -29.4114
lowerback 3.01851 0.920313 -5.88248
upperback 5.07861 1.21939 3.01469
thorax 3.40238 0.380872 6.45849
lowerneck -13.5339 3.87677 2.11262
upperneck 38.2923 9.56606 -6.52668
head 16.5242 3.82355 -1.41576
rclavicle 4.37326e-015 1.43125e-014
rhumerus -13.5389 1.07805 -99.0345
rradius 46.5256
rwrist -62.9923
rhand -36.9799 -7.17133
rfingers 7.12502
rthumb -10.0553 -36.9111
lclavicle 4.37326e-015 1.43125e-014
lhumerus 12.3064 -76.7626 87.4746
lradius 26.2754
lwrist 25.8884
lhand 5.00566 56.0697
lfingers 7.12502
lthumb -149.625 -96.4117
rfemur -32.1299 4.74736 16.0051
rtibia 28.1515
rfoot -8.46155 -1.46442
rtoes -5.6717
lfemur -22.9876 11.7698 -1.55419
ltibia 29.8878
lfoot -10.7397 10.982
ltoes -24.901
206
root -6.81984 17.7367 0.717984 -13.0092 73.7172 -28.9659
lowerback 3.03239 0.639857 -5.85384
upperback 5.09554 0.846992 2.82039
thorax 3.47188 0.195258 6.23827
lowerneck -13.5676 4.33584 2.16118
upperneck 38.1521 10.2404 -6.60386
head 16.5188 4.08606 -1.33436
rclavicle -1.47101e-014 -3.97569e-014
rhumerus -13.764 0.666624 -98.8958
rradius 47.6873
rwrist -63.1492
rhand -37.6426 -7.14609
rfingers 7.12502
rthumb -10.6946 -36.8539
lclavicle -1.47101e-014 -3.97569e-014
lhumerus 14.5735 -77.0489 85.3918
lradius 26.1809
lwrist 25.3129
lhand 4.57474 54.1134
lfingers 7.12502
lthumb -150.036 -98.2928
rfemur -32.1713 4.85375 16.2598
rtibia 28.1525
rfoot -8.49569 -0.97872
rtoes -5.35693
lfemur -22.6427 11.7951 -1.32011
ltibia 29.8765
lfoot -10.7852 11.4509
ltoes -25.0841
207
root -6.81744 17.7337 0.732011 -12.7828 73.2485 -28.7895
lowerback 2.96032 0.279872 -5.7649
upperback 5.10648 0.371519 2.71455
thorax 3.59578 -0.0430585 6.0776
lowerneck -13.5041 4.7974 2.08228
upperneck 37.894 10.9726 -6.77245
head 16.4333 4.349 -1.26112
rclavicle 1.39149e-014 3.97569e-015
rhumerus -13.9452 0.913356 -98.5639
rradius 48.803
rwrist -63.7404
rhand -39.002 -6.58602
rfingers 7.12502
rthumb -12.0056 -36.2217
lclavicle 1.39149e-014 3.97569e-015
lhumerus 17.6346 -77.3957 82.6079
lradius 26.147
lwrist 24.9948
lhand 3.79292 52.1911
lfingers 7.12502
lthumb -150.782 -100.083
rfemur -32.2873 4.91704 16.5132
rtibia 28.1457
rfoot -8.50434 -0.546564
rtoes -4.9321
lfemur -22.4387 11.7416 -1.07422
ltibia 29.8758
lfoot -10.7693 11.9397
ltoes -25.1879
208
root -6.81427 17.7301 0.751514 -12.4109 72.5704 -28.4452
lowerback 2.80105 0.0106769 -5.91153
upperback 5.13755 0.018633 2.71545
thorax 3.77349 -0.233379 6.16335
lowerneck -13.3264 5.23825 1.9834
upperneck 37.5706 11.7072 -7.03793
head 16.2964 4.60694 -1.22916
rclavicle 2.5842e-014 0
rhumerus -14.1526 1.74635 -97.9428
rradius 49.9802
rwrist -65.0153
rhand -40.3747 -5.70898
rfingers 7.12502
rthumb -13.329 -35.2627
lclavicle 2.5842e-014 0
lhumerus 20.5383 -77.5206 80.244
lradius 26.1442
lwrist 23.9744
lhand 3.34129 52.8475
lfingers 7.12502
lthumb -151.213 -99.3523
rfemur -32.4111 5.16671 16.7913
rtibia 28.1566
rfoot -8.52046 -0.0668177
rtoes -4.55996
lfemur -22.1141 12.015 -0.809529
ltibia 29.8696
lfoot -10.8337 12.2966
ltoes -24.7775
209
root -6.80871 17.7268 0.780352 -12.0156 71.6852 -27.9445
lowerback 2.68478 -0.160735 -6.13229
upperback 5.19734 -0.202954 2.64875
thorax 3.93953 -0.359732 6.21845
lowerneck -13.079 5.68004 2.02896
upperneck 37.2178 12.3753 -7.27131
head 16.1323 4.86725 -1.2234
rclavicle 3.18055e-014 2.8625e-014
rhumerus -14.3357 1.5782 -97.532
rradius 51.1982
rwrist -65.2919
rhand -40.8729 -5.60898
rfingers 7.12502
rthumb -13.8092 -35.1306
lclavicle 3.18055e-014 2.8625e-014
lhumerus 22.5589 -77.3892 78.736
lradius 26.0204
lwrist 22.0774
lhand 2.02898 51.4726
lfingers 7.12502
lthumb -152.468 -100.521
rfemur -32.3948 5.617 17.1024
rtibia 28.1782
rfoot -8.58679 0.416628
rtoes -4.45212
lfemur -21.524 12.4644 -0.484615
ltibia 29.8442
lfoot -10.9577 12.617
ltoes -24.4169
210
root -6.8029 17.7248 0.811005 -11.439 70.8594 -27.2387
lowerback 2.56004 -0.334302 -6.3733
upperback 5.2841 -0.421901 2.46919
thorax 4.13855 -0.485028 6.1639
lowerneck -12.8856 6.12455 2.20066
upperneck 36.8156 12.9883 -7.49537
head 15.9646 5.12254 -1.24353
rclavicle 1.98785e-015 2.14687e-014
rhumerus -14.4036 0.831727 -97.2873
rradius 52.4065
rwrist -64.9293
rhand -41.0391 -6.0822
rfingers 7.12502
rthumb -13.9693 -35.5929
lclavicle 1.98785e-015 2.14687e-014
lhumerus 25.205 -77.3896 76.5098
lradius 25.7927
lwrist 20.1289
lhand 1.03358 50.7025
lfingers 7.12502
lthumb -153.42 -101.143
rfemur -32.3508 5.93871 17.3577
rtibia 28.1817
rfoot -8.62674 0.935104
rtoes -4.71798
lfemur -20.9154 12.8337 -0.258396
ltibia 29.8037
lfoot -11.0166 12.9989
ltoes -24.1706
211
root -6.79974 17.7252 0.841919 -10.6999 70.0489 -26.4905
lowerback 2.36143 -0.53085 -6.70191
upperback 5.3282 -0.668519 2.32626
thorax 4.3428 -0.628481 6.19563
lowerneck -12.8325 6.58639 2.31728
upperneck 36.5456 13.6725 -7.71527
head 15.905 5.39217 -1.23375
rclavicle -1.43125e-014 -2.38542e-014
rhumerus -14.5351 0.455821 -96.971
rradius 53.7741
rwrist -64.9242
rhand -41.672 -6.21709
rfingers 7.12502
rthumb -14.5792 -35.6847
lclavicle -1.43125e-014 -2.38542e-014
lhumerus 28.4431 -77.4015 73.7406
lradius 25.5713
lwrist 18.4101
lhand 0.261812 49.7982
lfingers 7.12502
lthumb -154.159 -101.937
rfemur -32.4416 6.29677 17.5609
rtibia 28.1716
rfoot -8.6056 1.35955
rtoes -5.29132
lfemur -20.4414 13.2287 -0.0949326
ltibia 29.7546
lfoot -11.0251 13.359
ltoes -23.674
212
root -6.79603 17.7262 0.871717 -10.1797 69.1898 -26.0291
lowerback 2.10798 -0.734109 -6.91979
upperback 5.32636 -0.922471 2.21622
thorax 4.52976 -0.770545 6.19598
lowerneck -12.7469 7.0606 2.43209
upperneck 36.3508 14.3875 -7.91464
head 15.8796 5.67769 -1.20994
rclavicle 3.02153e-014 -2.70347e-014
rhumerus -14.7533 0.150899 -96.6988
rradius 55.2463
rwrist -64.9756
rhand -42.6765 -5.76808
rfingers 7.12502
rthumb -15.5468 -35.1631
lclavicle 3.02153e-014 -2.70347e-014
lhumerus 31.7826 -77.3813 70.8226
lradius 25.4595
lwrist 17.0786
lhand -0.492645 48.1829
lfingers 7.12502
lthumb -154.882 -103.449
rfemur -32.5861 6.84826 17.7787
rtibia 28.1627
rfoot -8.56926 1.67256
rtoes -5.32476
lfemur -19.9986 13.6236 0.171368
ltibia 29.684
lfoot -11.1028 13.6245
ltoes -22.5555
